{
  "accessors": [
    {
      "bufferView": 2,
      "componentType": 5126,
      "count": 76,
      "max": [
        0.7630230188369751,
        -1.3777899742126465,
        -0.3017140030860901
      ],
      "min": [
        -0.8281480073928833,
        -3.018239974975586,
        -1.4102599620819092
      ],
      "type": "VEC3"
    },
    {
      "bufferView": 2,
      "byteOffset": 912,
      "componentType": 5126,
      "count": 76,
      "max": [
        0.9987314343452454,
        0.9736052751541138,
        0.9538801908493042
      ],
      "min": [
        -0.9996901750564575,
        -0.9936982989311218,
        -0.9628111720085144
      ],
      "type": "VEC3"
    },
    {
      "bufferView": 1,
      "componentType": 5126,
      "count": 76,
      "max": [
        0.11404000222682953,
        0.9402710199356079
      ],
      "min": [
        0.016859199851751328,
        0.6079580187797546
      ],
      "type": "VEC2"
    },
    {
      "bufferView": 0,
      "componentType": 5125,
      "count": 282,
      "type": "SCALAR"
    },
    {
      "bufferView": 2,
      "byteOffset": 1824,
      "componentType": 5126,
      "count": 388,
      "max": [
        1.901419997215271,
        1.4655699729919434,
        2.186379909515381
      ],
      "min": [
        -2.078900098800659,
        -1.6982300281524658,
        -1.9922900199890137
      ],
      "type": "VEC3"
    },
    {
      "bufferView": 2,
      "byteOffset": 6480,
      "componentType": 5126,
      "count": 388,
      "max": [
        0.9979910850524902,
        0.9978986978530884,
        0.9886754155158997
      ],
      "min": [
        -0.9988549947738647,
        -0.9946886897087097,
        -0.999721109867096
      ],
      "type": "VEC3"
    },
    {
      "bufferView": 1,
      "byteOffset": 608,
      "componentType": 5126,
      "count": 388,
      "max": [
        0.21694700419902802,
        0.9929789900779724
      ],
      "min": [
        0.014063400216400623,
        0.5728369951248169
      ],
      "type": "VEC2"
    },
    {
      "bufferView": 0,
      "byteOffset": 1128,
      "componentType": 5125,
      "count": 1380,
      "type": "SCALAR"
    },
    {
      "bufferView": 2,
      "byteOffset": 11136,
      "componentType": 5126,
      "count": 1336,
      "max": [
        1.422160029411316,
        0.543304979801178,
        -2.194080114364624
      ],
      "min": [
        -1.4065300226211548,
        -0.5363590121269226,
        -3.0181798934936523
      ],
      "type": "VEC3"
    },
    {
      "bufferView": 2,
      "byteOffset": 27168,
      "componentType": 5126,
      "count": 1336,
      "max": [
        0.9943478107452393,
        0.9965152740478516,
        0.9974676370620728
      ],
      "min": [
        -0.9896746277809143,
        -0.99534010887146,
        -0.996269941329956
      ],
      "type": "VEC3"
    },
    {
      "bufferView": 1,
      "byteOffset": 3712,
      "componentType": 5126,
      "count": 1336,
      "max": [
        0.07759950309991837,
        0.8083639740943909
      ],
      "min": [
        0.025721300393342972,
        0.5891550183296204
      ],
      "type": "VEC2"
    },
    {
      "bufferView": 0,
      "byteOffset": 6648,
      "componentType": 5125,
      "count": 3024,
      "type": "SCALAR"
    },
    {
      "bufferView": 2,
      "byteOffset": 43200,
      "componentType": 5126,
      "count": 172,
      "max": [
        0.64478600025177,
        2.3320600986480713,
        0.17438900470733643
      ],
      "min": [
        -0.7604470252990723,
        1.1396299600601196,
        -1.4583899974822998
      ],
      "type": "VEC3"
    },
    {
      "bufferView": 2,
      "byteOffset": 45264,
      "componentType": 5126,
      "count": 172,
      "max": [
        0.991020679473877,
        0.9995043277740479,
        0.9992259740829468
      ],
      "min": [
        -0.991020679473877,
        -0.9995043277740479,
        -0.9962109327316284
      ],
      "type": "VEC3"
    },
    {
      "bufferView": 1,
      "byteOffset": 14400,
      "componentType": 5126,
      "count": 172,
      "max": [
        0.9568660259246826,
        0.9787889719009399
      ],
      "min": [
        0.1444229930639267,
        0.22761499881744385
      ],
      "type": "VEC2"
    },
    {
      "bufferView": 0,
      "byteOffset": 18744,
      "componentType": 5125,
      "count": 570,
      "type": "SCALAR"
    },
    {
      "bufferView": 2,
      "byteOffset": 47328,
      "componentType": 5126,
      "count": 89,
      "max": [
        0.4613400101661682,
        1.4730299711227417,
        0.5030040144920349
      ],
      "min": [
        -0.5676720142364502,
        1.2153500318527222,
        0.17260700464248657
      ],
      "type": "VEC3"
    },
    {
      "bufferView": 2,
      "byteOffset": 48396,
      "componentType": 5126,
      "count": 89,
      "max": [
        0.9977446794509888,
        0.9988549947738647,
        0.9994733929634094
      ],
      "min": [
        -0.9977446794509888,
        -0.9988549947738647,
        -0.9994733929634094
      ],
      "type": "VEC3"
    },
    {
      "bufferView": 1,
      "byteOffset": 15776,
      "componentType": 5126,
      "count": 89,
      "max": [
        0.8600490093231201,
        0.9102349877357483
      ],
      "min": [
        0.7615090012550354,
        0.6917799711227417
      ],
      "type": "VEC2"
    },
    {
      "bufferView": 0,
      "byteOffset": 21024,
      "componentType": 5125,
      "count": 288,
      "type": "SCALAR"
    }
  ],
  "asset": {
    "extras": {
      "author": "makskolot7 (https://sketchfab.com/makskolot7)",
      "license": "CC-BY-4.0 (http://creativecommons.org/licenses/by/4.0/)",
      "source": "https://sketchfab.com/3d-models/chicken-gun-chicken-20c4c066ea2c4348ba185fb4e82d90c7",
      "title": "Chicken Gun- Chicken"
    },
    "generator": "Sketchfab-15.32.0",
    "version": "2.0"
  },
  "bufferViews": [
    {
      "buffer": 0,
      "byteLength": 22176,
      "name": "floatBufferViews",
      "target": 34963
    },
    {
      "buffer": 0,
      "byteLength": 16488,
      "byteOffset": 22176,
      "byteStride": 8,
      "name": "floatBufferViews",
      "target": 34962
    },
    {
      "buffer": 0,
      "byteLength": 49464,
      "byteOffset": 38664,
      "byteStride": 12,
      "name": "floatBufferViews",
      "target": 34962
    }
  ],
  "buffers": [
    {
      "byteLength": 88128,
      "uri": "scene.bin"
    }
  ],
  "images": [
    {
      "uri": "textures/H11Mtl_baseColor.png"
    },
    {
      "uri": "textures/H11Mtl_emissive.png"
    },
    {
      "uri": "textures/Malefootleftbruce1Mtl_baseColor.png"
    },
    {
      "uri": "textures/Malefootleftbruce1Mtl_emissive.png"
    },
    {
      "uri": "textures/Rudyscbody0051Mtl_baseColor.png"
    },
    {
      "uri": "textures/Rudyscbody0051Mtl_emissive.png"
    },
    {
      "uri": "textures/Rudysceyeright1Mtl_baseColor.png"
    },
    {
      "uri": "textures/Rudysceyeright1Mtl_emissive.png"
    },
    {
      "uri": "textures/T11Mtl_baseColor.png"
    },
    {
      "uri": "textures/T11Mtl_emissive.png"
    }
  ],
  "materials": [
    {
      "alphaMode": "BLEND",
      "doubleSided": true,
      "emissiveTexture": {
        "index": 1
      },
      "name": "H11Mtl",
      "pbrMetallicRoughness": {
        "baseColorTexture": {
          "index": 0
        },
        "metallicFactor": 0.0
      }
    },
    {
      "alphaMode": "BLEND",
      "doubleSided": true,
      "emissiveTexture": {
        "index": 3
      },
      "name": "Malefootleftbruce1Mtl",
      "pbrMetallicRoughness": {
        "baseColorTexture": {
          "index": 2
        },
        "metallicFactor": 0.0
      }
    },
    {
      "alphaMode": "BLEND",
      "doubleSided": true,
      "emissiveTexture": {
        "index": 5
      },
      "name": "Rudyscbody0051Mtl",
      "pbrMetallicRoughness": {
        "baseColorTexture": {
          "index": 4
        },
        "metallicFactor": 0.0
      }
    },
    {
      "alphaMode": "BLEND",
      "doubleSided": true,
      "emissiveTexture": {
        "index": 7
      },
      "name": "Rudysceyeright1Mtl",
      "pbrMetallicRoughness": {
        "baseColorTexture": {
          "index": 6
        },
        "metallicFactor": 0.0
      }
    },
    {
      "alphaMode": "BLEND",
      "doubleSided": true,
      "emissiveTexture": {
        "index": 9
      },
      "name": "T11Mtl",
      "pbrMetallicRoughness": {
        "baseColorTexture": {
          "index": 8
        },
        "metallicFactor": 0.0
      }
    }
  ],
  "meshes": [
    {
      "name": "Object_0",
      "primitives": [
        {
          "attributes": {
            "NORMAL": 1,
            "POSITION": 0,
            "TEXCOORD_0": 2
          },
          "indices": 3,
          "material": 4,
          "mode": 4
        }
      ]
    },
    {
      "name": "Object_1",
      "primitives": [
        {
          "attributes": {
            "NORMAL": 5,
            "POSITION": 4,
            "TEXCOORD_0": 6
          },
          "indices": 7,
          "material": 0,
          "mode": 4
        }
      ]
    },
    {
      "name": "Object_2",
      "primitives": [
        {
          "attributes": {
            "NORMAL": 9,
            "POSITION": 8,
            "TEXCOORD_0": 10
          },
          "indices": 11,
          "material": 1,
          "mode": 4
        }
      ]
    },
    {
      "name": "Object_3",
      "primitives": [
        {
          "attributes": {
            "NORMAL": 13,
            "POSITION": 12,
            "TEXCOORD_0": 14
          },
          "indices": 15,
          "material": 2,
          "mode": 4
        }
      ]
    },
    {
      "name": "Object_4",
      "primitives": [
        {
          "attributes": {
            "NORMAL": 17,
            "POSITION": 16,
            "TEXCOORD_0": 18
          },
          "indices": 19,
          "material": 3,
          "mode": 4
        }
      ]
    }
  ],
  "nodes": [
    {
      "children": [
        1
      ],
      "matrix": [
        1.0,
        0.0,
        0.0,
        0.0,
        0.0,
        2.220446049250313e-16,
        -1.0,
        0.0,
        0.0,
        1.0,
        2.220446049250313e-16,
        0.0,
        0.0,
        0.0,
        0.0,
        1.0
      ],
      "name": "Sketchfab_model"
    },
    {
      "children": [
        2,
        3,
        4,
        5,
        6
      ],
      "name": "ch.obj.cleaner.materialmerger.gles"
    },
    {
      "mesh": 0,
      "name": "Object_2"
    },
    {
      "mesh": 1,
      "name": "Object_3"
    },
    {
      "mesh": 2,
      "name": "Object_4"
    },
    {
      "mesh": 3,
      "name": "Object_5"
    },
    {
      "mesh": 4,
      "name": "Object_6"
    }
  ],
  "samplers": [
    {
      "magFilter": 9729,
      "minFilter": 9987,
      "wrapS": 10497,
      "wrapT": 10497
    }
  ],
  "scene": 0,
  "scenes": [
    {
      "name": "Sketchfab_Scene",
      "nodes": [
        0
      ]
    }
  ],
  "textures": [
    {
      "sampler": 0,
      "source": 0
    },
    {
      "sampler": 0,
      "source": 1
    },
    {
      "sampler": 0,
      "source": 2
    },
    {
      "sampler": 0,
      "source": 3
    },
    {
      "sampler": 0,
      "source": 4
    },
    {
      "sampler": 0,
      "source": 5
    },
    {
      "sampler": 0,
      "source": 6
    },
    {
      "sampler": 0,
      "source": 7
    },
    {
      "sampler": 0,
      "source": 8
    },
    {
      "sampler": 0,
      "source": 9
    }
  ]
}
